<svg width="144" height="28" viewBox="0 0 144 28" fill="none" xmlns="http://www.w3.org/2000/svg">
<path d="M43.6139 22.9311C42.3819 22.933 41.2776 22.7346 40.3011 22.336C39.3245 21.9375 38.5396 21.3467 37.9464 20.5635C37.3693 19.7804 37.0639 18.8369 37.0302 17.7329L41.3982 17.7264C41.4631 18.3503 41.6799 18.83 42.0483 19.1654C42.4168 19.4849 42.8971 19.6442 43.4891 19.6433C44.0971 19.6424 44.5769 19.5057 44.9285 19.2332C45.28 18.9446 45.4554 18.5524 45.4547 18.0564C45.4541 17.6404 45.3096 17.2966 45.0212 17.025C44.7488 16.7534 44.4044 16.5299 43.9882 16.3546C43.5879 16.1792 43.0116 15.98 42.2593 15.7571C41.1708 15.4227 40.2823 15.0881 39.5938 14.7531C38.9053 14.4181 38.3126 13.923 37.8156 13.2677C37.3186 12.6125 37.0693 11.7568 37.0678 10.7008C37.0654 9.13284 37.6316 7.908 38.7663 7.02631C39.901 6.12862 41.3803 5.67843 43.2043 5.67572C45.0603 5.67296 46.557 6.11874 47.6943 7.01305C48.8316 7.89136 49.4414 9.12246 49.5238 10.7063L45.0838 10.7129C45.051 10.169 44.8504 9.74528 44.4819 9.44182C44.1134 9.12237 43.6412 8.96307 43.0652 8.96393C42.5692 8.96466 42.1694 9.10126 41.8658 9.37371C41.5622 9.63016 41.4107 10.0064 41.4115 10.5024C41.4123 11.0464 41.6689 11.47 42.1814 11.7732C42.6938 12.0765 43.4943 12.4033 44.5828 12.7537C45.6714 13.1201 46.5519 13.4708 47.2244 13.8058C47.9129 14.1407 48.5056 14.6279 49.0026 15.2671C49.4995 15.9064 49.7487 16.73 49.7502 17.738C49.7517 18.698 49.505 19.5704 49.0101 20.3551C48.5313 21.1398 47.8282 21.7649 46.9009 22.2302C45.9736 22.6956 44.8779 22.9293 43.6139 22.9311ZM66.8503 5.8806L66.8753 22.7286L62.7713 22.7347L62.761 15.7987L56.377 15.8082L56.3873 22.7442L52.2833 22.7503L52.2583 5.90227L56.3623 5.89618L56.3721 12.4962L62.7561 12.4867L62.7463 5.8867L66.8503 5.8806ZM73.917 5.87011L73.942 22.7181L69.838 22.7242L69.813 5.8762L73.917 5.87011ZM86.6841 22.6992L81.009 15.2676L81.0201 22.7076L76.9161 22.7137L76.8911 5.86569L80.9951 5.85959L81.006 13.2516L86.6111 5.85125L91.4351 5.84409L84.9193 14.1098L91.7001 22.6917L86.6841 22.6992ZM104.134 19.6972L97.846 19.7066L96.8424 22.6841L92.5465 22.6905L98.6174 5.83342L103.369 5.82637L109.49 22.6653L105.146 22.6717L104.134 19.6972ZM103.073 16.5308L100.976 10.3659L98.9213 16.537L103.073 16.5308ZM121.114 22.648L115.439 15.2165L115.45 22.6564L111.346 22.6625L111.321 5.81456L115.425 5.80846L115.436 13.2005L121.041 5.80012L125.865 5.79296L119.349 14.0586L126.13 22.6406L121.114 22.648ZM132.087 5.78372L132.102 15.8637C132.104 16.8717 132.353 17.6473 132.849 18.1906C133.346 18.7339 134.075 19.0048 135.035 19.0034C135.995 19.0019 136.73 18.7288 137.241 18.1841C137.753 17.6393 138.008 16.8629 138.006 15.8549L137.991 5.77495L142.095 5.76885L142.11 15.8248C142.112 17.3288 141.794 18.6013 141.156 19.6423C140.517 20.6832 139.654 21.4685 138.567 21.9981C137.496 22.5277 136.296 22.7935 134.968 22.7955C133.64 22.7974 132.448 22.5432 131.391 22.0328C130.35 21.5063 129.525 20.7235 128.916 19.6844C128.306 18.6293 128 17.3498 127.998 15.8458L127.983 5.78981L132.087 5.78372Z" fill="url(#paint0_linear_666_1138)"/>
<path d="M1.75378 12.9775C0.786178 12.9775 0 12.194 0 11.2297V1.74774C0 0.78347 0.786178 0 1.75378 0H11.329C12.2966 0 13.0828 0.78347 13.0828 1.74774C13.0828 2.71201 12.2966 3.49548 11.329 3.49548H3.51159V11.2257C3.51159 12.19 2.72542 12.9735 1.75781 12.9735L1.75378 12.9775Z" fill="#E86B8E"/>
<path d="M26.2422 12.9773C25.2746 12.9773 24.4884 12.1938 24.4884 11.2295V3.49927H16.671C15.7034 3.49927 14.9172 2.7158 14.9172 1.75153C14.9172 0.787254 15.7034 0.00378418 16.671 0.00378418H26.2463C27.2139 0.00378418 28 0.787254 28 1.75153V11.2335C28 12.1978 27.2139 12.9813 26.2463 12.9813L26.2422 12.9773Z" fill="#E86B8E"/>
<path d="M26.2424 27.996H16.6671C15.6995 27.996 14.9133 27.2126 14.9133 26.2483C14.9133 25.284 15.6995 24.5006 16.6671 24.5006H24.4845V16.7703C24.4845 15.8061 25.2707 15.0226 26.2383 15.0226C27.2059 15.0226 27.9921 15.8061 27.9921 16.7703V26.2523C27.9921 27.2166 27.2059 28.0001 26.2383 28.0001L26.2424 27.996Z" fill="#E86B8E"/>
<path d="M11.329 27.9958H1.75378C0.786178 27.9958 0 27.2123 0 26.2481V16.7661C0 15.8018 0.786178 15.0183 1.75378 15.0183C2.72138 15.0183 3.50756 15.8018 3.50756 16.7661V24.4963H11.329C12.2966 24.4963 13.0828 25.2798 13.0828 26.244C13.0828 27.2083 12.2966 27.9918 11.329 27.9918V27.9958Z" fill="#E86B8E"/>
<path d="M14.8971 6.69421C15.1672 6.96341 15.1672 7.40135 14.8971 7.67456L12.728 9.83613L14.9173 12.0178C15.1874 12.287 15.1874 12.7249 14.9173 12.9981C14.6471 13.2713 14.2077 13.2673 13.9335 12.9981L11.2565 10.3303C10.9864 10.0611 10.9864 9.62319 11.2565 9.34998L13.9174 6.69823C14.1875 6.42904 14.627 6.42904 14.9011 6.69823L14.8971 6.69421Z" fill="#E86B8E"/>
<path d="M6.72893 6.69387L9.40596 9.36169C9.67609 9.63088 9.67609 10.0688 9.40596 10.342L6.74505 12.9938C6.47493 13.263 6.03548 13.263 5.76132 12.9938C5.48717 12.7246 5.4912 12.2866 5.76132 12.0134L7.93037 9.85186L5.74117 7.6702C5.47104 7.401 5.47104 6.96306 5.74117 6.68985C6.01129 6.41664 6.45074 6.42066 6.7249 6.68985L6.72893 6.69387Z" fill="#E86B8E"/>
<defs>
<linearGradient id="paint0_linear_666_1138" x1="29.5956" y1="0.392018" x2="163.116" y2="19.5591" gradientUnits="userSpaceOnUse">
<stop stop-color="#E86B8E"/>
<stop offset="1" stop-color="#D366CF"/>
</linearGradient>
</defs>
</svg>
