<svg width="28" height="28" viewBox="0 0 28 28" fill="none" xmlns="http://www.w3.org/2000/svg">
<path d="M1.75378 12.9775C0.786178 12.9775 0 12.194 0 11.2297V1.74774C0 0.78347 0.786178 0 1.75378 0H11.329C12.2966 0 13.0828 0.78347 13.0828 1.74774C13.0828 2.71201 12.2966 3.49548 11.329 3.49548H3.51159V11.2257C3.51159 12.19 2.72542 12.9735 1.75781 12.9735L1.75378 12.9775Z" fill="#E86B8E"/>
<path d="M26.242 12.9771C25.2744 12.9771 24.4882 12.1937 24.4882 11.2294V3.49915H16.6708C15.7032 3.49915 14.917 2.71567 14.917 1.7514C14.917 0.787132 15.7032 0.00366211 16.6708 0.00366211H26.246C27.2136 0.00366211 27.9998 0.787132 27.9998 1.7514V11.2334C27.9998 12.1977 27.2136 12.9811 26.246 12.9811L26.242 12.9771Z" fill="#E86B8E"/>
<path d="M26.2421 27.9962H16.6669C15.6993 27.9962 14.9131 27.2127 14.9131 26.2484C14.9131 25.2842 15.6993 24.5007 16.6669 24.5007H24.4843V16.7704C24.4843 15.8062 25.2705 15.0227 26.2381 15.0227C27.2057 15.0227 27.9919 15.8062 27.9919 16.7704V26.2524C27.9919 27.2167 27.2057 28.0002 26.2381 28.0002L26.2421 27.9962Z" fill="#E86B8E"/>
<path d="M11.329 27.9958H1.75378C0.786178 27.9958 0 27.2123 0 26.2481V16.7661C0 15.8018 0.786178 15.0183 1.75378 15.0183C2.72138 15.0183 3.50756 15.8018 3.50756 16.7661V24.4963H11.329C12.2966 24.4963 13.0828 25.2798 13.0828 26.244C13.0828 27.2083 12.2966 27.9918 11.329 27.9918V27.9958Z" fill="#E86B8E"/>
<path d="M14.8969 6.69421C15.167 6.96341 15.167 7.40135 14.8969 7.67456L12.7279 9.83613L14.9171 12.0178C15.1872 12.287 15.1872 12.7249 14.9171 12.9981C14.6469 13.2713 14.2075 13.2673 13.9333 12.9981L11.2563 10.3303C10.9862 10.0611 10.9862 9.62319 11.2563 9.34998L13.9172 6.69823C14.1873 6.42904 14.6268 6.42904 14.9009 6.69823L14.8969 6.69421Z" fill="#E86B8E"/>
<path d="M6.72844 6.69375L9.40548 9.36157C9.6756 9.63076 9.6756 10.0687 9.40548 10.3419L6.74457 12.9937C6.47444 13.2628 6.03499 13.2628 5.76084 12.9937C5.48668 12.7245 5.49071 12.2865 5.76084 12.0133L7.92988 9.85174L5.74068 7.67008C5.47056 7.40088 5.47056 6.96294 5.74068 6.68973C6.0108 6.41652 6.45025 6.42054 6.72441 6.68973L6.72844 6.69375Z" fill="#E86B8E"/>
</svg>
